<?xml version="1.0" encoding="UTF-8"?>
<svg width="477px" height="188px" viewBox="0 0 477 188" version="1.1" xmlns="http://www.w3.org/2000/svg" xmlns:xlink="http://www.w3.org/1999/xlink">
    <title>画板</title>
    <g id="画板" stroke="none" stroke-width="1" fill="none" fill-rule="evenodd">
        <g id="编组-3" transform="translate(99.000000, 66.000000)">
            <g id="编组" transform="translate(99.000000, 0.000000)">
                <path d="M37.9129244,0.5 L52.7870176,28 L37.9129244,55.5 L28.8388892,55.5 L43.7129824,28 L28.8388892,0.5 L37.9129244,0.5 Z" id="矩形" stroke="#EAC12E"></path>
                <polygon id="矩形备份" fill="#EAC12E" points="0 0 10.2109375 -1.55431223e-15 25.3554688 28 10.2109375 56 0 56 15.1445313 28"></polygon>
                <polygon id="矩形备份-2" fill="#EAC12E" points="56 0 66.2109375 -1.55431223e-15 81.3554688 28 66.2109375 56 56 56 71.1445312 28"></polygon>
            </g>
            <g id="编组-2" transform="translate(228.000000, 0.000000)" fill="#B28F15">
                <polygon id="矩形备份-4" points="0 0 10.2109375 -1.55431223e-15 25.3554688 28 10.2109375 56 0 56 15.1445313 28"></polygon>
                <polygon id="矩形备份-5" points="25 0 35.2109375 -1.55431223e-15 50.3554688 28 35.2109375 56 25 56 40.1445313 28"></polygon>
            </g>
            <g id="编组-2备份" fill="#B28F15">
                <polygon id="矩形备份-4" points="0 0 10.2109375 -1.55431223e-15 25.3554688 28 10.2109375 56 0 56 15.1445313 28"></polygon>
                <polygon id="矩形备份-5" points="25 0 35.2109375 -1.55431223e-15 50.3554688 28 35.2109375 56 25 56 40.1445313 28"></polygon>
            </g>
        </g>
    </g>
</svg>